<svg xmlns="http://www.w3.org/2000/svg" width="116" height="116">
  <g transform="scale(0.276190)">
  <rect width="420" height="420" fill="#ffffff"/>
  <circle cx="210" cy="210" r="178" fill="#050505"/>
  <circle cx="210" cy="190" r="154" fill="#e7bd42"/>
  <path d="M75 302c34 43 80 65 135 65s101-22 135-65H75z" fill="#050505"/>
  <path d="M198 332c14-49 19-96 10-142-3-17-13-33-29-48 29 12 47 28 56 49 18 41 17 88 2 141h-39z" fill="#050505"/>
  <path d="M216 212c-48-12-86-7-116 17 39-42 84-52 135-30 46-34 82-45 111-34-33 5-67 23-102 55 39-11 75-8 108 10-39-8-78 1-116 27-31 20-68 30-111 29 39-10 69-22 91-36-35 7-69 3-103-12 38 7 72-2 103-26z" fill="#050505"/>
  <path d="M137 170c20-31 52-47 96-47-39 10-68 30-86 60l-10-13z" fill="#ffd11a"/>
  <path d="M111 207c18-29 48-43 90-42-35 9-61 27-78 54l-12-12z" fill="#ffd11a"/>
  <path d="M250 148c28-23 62-31 101-22-35 3-64 17-87 42l-14-20z" fill="#c79200"/>
  <path d="M271 181c30-17 61-19 94-6-31 0-59 9-84 27l-10-21z" fill="#c79200"/>
  <text x="210" y="80" text-anchor="middle" fill="#050505" font-family="DejaVu Sans, Arial, sans-serif" font-size="22" font-weight="700">CENTRO DE REABILITACAO</text>
  <text x="210" y="108" text-anchor="middle" fill="#050505" font-family="DejaVu Sans, Arial, sans-serif" font-size="22" font-weight="700">DO PRESO E EGRESSO</text>
  <text x="272" y="284" text-anchor="middle" fill="#050505" font-family="DejaVu Sans, Arial, sans-serif" font-size="46" font-weight="700">CERAPE</text>
  <text x="210" y="354" text-anchor="middle" fill="#ffffff" font-family="DejaVu Sans, Arial, sans-serif" font-size="30" font-weight="700">EST. 1995</text>
  </g>
</svg>
